<svg width="82" height="86" viewBox="0 0 82 86" fill="none" xmlns="http://www.w3.org/2000/svg">
<g id="Group 2">
<rect id="Rectangle 41" width="82" height="74" fill="black"/>
<path id="Polygon 1" d="M41 86L28.8756 73.25L53.1244 73.25L41 86Z" fill="black"/>
<path id="Vector" d="M41 13C44.1826 13 47.2348 14.2379 49.4853 16.4415C51.7357 18.645 53 21.6337 53 24.75C53 27.8663 51.7357 30.855 49.4853 33.0585C47.2348 35.2621 44.1826 36.5 41 36.5C37.8174 36.5 34.7652 35.2621 32.5147 33.0585C30.2643 30.855 29 27.8663 29 24.75C29 21.6337 30.2643 18.645 32.5147 16.4415C34.7652 14.2379 37.8174 13 41 13ZM41 42.375C54.26 42.375 65 47.6331 65 54.125V60H17V54.125C17 47.6331 27.74 42.375 41 42.375Z" fill="white"/>
</g>
</svg>
