<svg width="30" height="38" viewBox="0 0 30 38" fill="none" xmlns="http://www.w3.org/2000/svg">
<g id="Certificate">
<path id="Vector" d="M29.1638 4.74329L15.4931 0.084486C15.3282 0.028162 15.1069 0 14.8856 0C14.6644 0 14.4431 0.028162 14.2781 0.084486L0.607495 4.74329C0.273574 4.85594 0 5.24216 0 5.5962V25.0038C0 25.3579 0.229319 25.8246 0.506916 26.0458L14.3747 36.852C14.5155 36.9606 14.6965 37.017 14.8816 37.017C15.0667 37.017 15.2517 36.9606 15.3885 36.852L29.2563 26.0458C29.5339 25.8286 29.7632 25.3619 29.7632 25.0038V5.5962C29.7713 5.24216 29.4977 4.85996 29.1638 4.74329ZM26.8746 24.2314L14.8856 33.5731L2.89666 24.2314V7.02843L14.8856 2.94092L26.8746 7.02843V24.2314Z" fill="#0A0A0A"/>
<path id="Vector_2" d="M22.6325 11.9092L22.6343 11.9067C23.0237 11.3636 22.6363 10.6044 21.9664 10.6044H19.7457C19.3804 10.6044 19.0336 10.7815 18.8191 11.0746L18.8181 11.0761L13.1517 18.8791L10.9533 15.8516L10.9523 15.8501C10.7388 15.5583 10.3967 15.3798 10.0257 15.3798H7.80497C7.13515 15.3798 6.74773 16.139 7.13711 16.6821L7.13711 16.6821L7.13893 16.6846L12.2242 23.6849L12.225 23.686C12.3315 23.8318 12.471 23.9505 12.632 24.0323C12.7931 24.114 12.9711 24.1567 13.1517 24.1567C13.3323 24.1567 13.5104 24.114 13.6714 24.0323C13.8325 23.9505 13.9719 23.8318 14.0785 23.686L14.0793 23.6849L22.6325 11.9092ZM3.39673 23.9876V7.38671L14.8857 3.46967L26.3747 7.38671V23.9876L14.8857 32.9398L3.39673 23.9876Z" stroke="white"/>
<path id="Vector_3" d="M10.5486 16.1445C10.4279 15.9796 10.2348 15.879 10.0256 15.879H7.80478C7.54328 15.879 7.3904 16.1767 7.54328 16.3899L12.6285 23.3902C12.6887 23.4725 12.7674 23.5395 12.8582 23.5856C12.9491 23.6318 13.0496 23.6558 13.1515 23.6558C13.2535 23.6558 13.354 23.6318 13.4448 23.5856C13.5357 23.5395 13.6144 23.4725 13.6746 23.3902L22.2278 11.6145C22.3806 11.4012 22.2278 11.1035 21.9663 11.1035H19.7455C19.5403 11.1035 19.3432 11.2041 19.2225 11.369L13.1515 19.7291L10.5486 16.1445Z" fill="#0A0A0A"/>
</g>
</svg>
