<svg width="74" height="86" viewBox="0 0 74 86" fill="none" xmlns="http://www.w3.org/2000/svg">
<g id="Group 4">
<rect id="Rectangle 42" width="74" height="74" fill="black"/>
<path id="Polygon 2" d="M37 86L24.8756 73.25L49.1244 73.25L37 86Z" fill="black"/>
<g id="Vector">
<mask id="path-3-inside-1_27_9" fill="white">
<path d="M58.5776 20H54.8943C54.3779 20 53.8878 20.2376 53.5717 20.6442L31.8459 48.2255L21.4283 34.9973C21.2707 34.7968 21.0699 34.6346 20.8408 34.523C20.6117 34.4115 20.3604 34.3533 20.1057 34.353H16.4224C16.0694 34.353 15.8744 34.7596 16.0904 35.0342L30.5233 53.3584C31.1978 54.2139 32.4941 54.2139 33.1738 53.3584L58.9096 20.6759C59.1256 20.4066 58.9306 20 58.5776 20Z"/>
</mask>
<path d="M58.5776 20H54.8943C54.3779 20 53.8878 20.2376 53.5717 20.6442L31.8459 48.2255L21.4283 34.9973C21.2707 34.7968 21.0699 34.6346 20.8408 34.523C20.6117 34.4115 20.3604 34.3533 20.1057 34.353H16.4224C16.0694 34.353 15.8744 34.7596 16.0904 35.0342L30.5233 53.3584C31.1978 54.2139 32.4941 54.2139 33.1738 53.3584L58.9096 20.6759C59.1256 20.4066 58.9306 20 58.5776 20Z" fill="white"/>
<path d="M53.5717 20.6442L74.7818 37.3514L74.8344 37.2847L74.8865 37.2176L53.5717 20.6442ZM31.8459 48.2255L10.634 64.9305L31.8436 91.8623L53.0561 64.9327L31.8459 48.2255ZM21.4283 34.9973L0.200011 51.6814L0.20822 51.6918L0.216438 51.7022L21.4283 34.9973ZM20.1057 34.353L20.1385 7.35305L20.1221 7.35303H20.1057V34.353ZM16.0904 35.0342L-5.12928 51.7293L-5.12478 51.735L-5.12027 51.7407L16.0904 35.0342ZM30.5233 53.3584L9.31261 70.0649L9.3207 70.0751L30.5233 53.3584ZM33.1738 53.3584L54.313 70.1553L54.3499 70.1089L54.3865 70.0623L33.1738 53.3584ZM58.9096 20.6759L37.8487 3.78098L37.7723 3.87616L37.6969 3.97202L58.9096 20.6759ZM58.5776 -7H54.8943V47H58.5776V-7ZM54.8943 -7C46.131 -7 37.741 -2.98225 32.2568 4.0709L74.8865 37.2176C70.0347 43.4575 62.6248 47 54.8943 47V-7ZM32.3615 3.93706L10.6358 31.5183L53.0561 64.9327L74.7818 37.3514L32.3615 3.93706ZM53.0578 31.5206L42.6402 18.2923L0.216438 51.7022L10.634 64.9305L53.0578 31.5206ZM42.6567 18.3132C39.9803 14.9078 36.565 12.1496 32.6644 10.2496L9.01716 58.7965C5.5747 57.1197 2.56123 54.6857 0.200011 51.6814L42.6567 18.3132ZM32.6644 10.2496C28.7637 8.34951 24.481 7.35833 20.1385 7.35305L20.0729 61.353C16.2398 61.3484 12.4598 60.4734 9.01716 58.7965L32.6644 10.2496ZM20.1057 7.35303H16.4224V61.353H20.1057V7.35303ZM16.4224 7.35303C-6.55105 7.35303 -19.2301 33.8068 -5.12928 51.7293L37.3101 18.3392C50.9789 35.7125 38.6898 61.353 16.4224 61.353V7.35303ZM-5.12027 51.7407L9.31261 70.0649L51.734 36.6519L37.3011 18.3278L-5.12027 51.7407ZM9.3207 70.0751C20.8472 84.6948 42.8658 84.5618 54.313 70.1553L12.0347 36.5615C22.1224 23.866 41.5484 23.733 51.7259 36.6417L9.3207 70.0751ZM54.3865 70.0623L80.1223 37.3798L37.6969 3.97202L11.9611 36.6545L54.3865 70.0623ZM79.9704 37.5709C94.6567 19.2633 81.1173 -7 58.5776 -7V47C36.744 47 23.5945 21.5499 37.8487 3.78098L79.9704 37.5709Z" fill="white" mask="url(#path-3-inside-1_27_9)"/>
</g>
</g>
</svg>
