<svg width="37" height="37" viewBox="0 0 37 37" fill="none" xmlns="http://www.w3.org/2000/svg">
<g id="clock">
<path id="Vector" d="M18.5 0C8.28371 0 0 8.28371 0 18.5C0 28.7163 8.28371 37 18.5 37C28.7163 37 37 28.7163 37 18.5C37 8.28371 28.7163 0 18.5 0ZM18.5 33.8616C10.0181 33.8616 3.13839 26.9819 3.13839 18.5C3.13839 10.0181 10.0181 3.13839 18.5 3.13839C26.9819 3.13839 33.8616 10.0181 33.8616 18.5C33.8616 26.9819 26.9819 33.8616 18.5 33.8616Z" fill="black"/>
<path id="Vector_2" d="M25.7141 23.7282L19.8255 19.4707V9.25028C19.8255 9.06858 19.6768 8.91992 19.4951 8.91992H17.5088C17.3271 8.91992 17.1785 9.06858 17.1785 9.25028V20.6228C17.1785 20.7302 17.228 20.8293 17.3147 20.8912L24.1449 25.8714C24.2935 25.9787 24.5 25.9457 24.6074 25.8012L25.7884 24.1907C25.8958 24.0379 25.8627 23.8314 25.7141 23.7282Z" fill="black"/>
</g>
</svg>
