<svg width="31" height="37" viewBox="0 0 31 37" fill="none" xmlns="http://www.w3.org/2000/svg">
<path id="Vector" d="M15.5 13.7355C19.3061 13.7355 22.3889 10.6622 22.3889 6.86775C22.3889 3.07332 19.3061 0 15.5 0C11.6939 0 8.61111 3.07332 8.61111 6.86775C8.61111 10.6622 11.6939 13.7355 15.5 13.7355ZM15.5 3.43387C17.3944 3.43387 18.9444 4.97912 18.9444 6.86775C18.9444 8.75638 17.3944 10.3016 15.5 10.3016C13.6056 10.3016 12.0556 8.75638 12.0556 6.86775C12.0556 4.97912 13.6056 3.43387 15.5 3.43387ZM15.5 18.1137C11.4356 14.3364 5.99333 12.0186 0 12.0186V30.9049C5.99333 30.9049 11.4356 33.2227 15.5 37C19.5644 33.2399 25.0067 30.9049 31 30.9049V12.0186C25.0067 12.0186 19.5644 14.3364 15.5 18.1137ZM27.5556 27.6942C23.1983 28.278 19.065 29.9262 15.5 32.536C11.9554 29.9312 7.80893 28.26 3.44444 27.677V15.7443C7.06111 16.3968 10.4194 18.0622 13.1578 20.6032L15.5 22.8009L17.8422 20.6204C20.5448 18.1046 23.917 16.4177 27.5556 15.7615V27.6942Z" fill="black"/>
</svg>
