<svg width="74" height="86" viewBox="0 0 74 86" fill="none" xmlns="http://www.w3.org/2000/svg">
<g id="Group 3">
<rect id="Rectangle 43" width="74" height="74" fill="black"/>
<path id="Polygon 3" d="M37 86L24.8756 73.25L49.1244 73.25L37 86Z" fill="black"/>
<g id="Group">
<path id="Vector" d="M19.1759 54.6481C16.9009 52.3731 15.0962 49.6723 13.865 46.6998C12.6337 43.7273 12 40.5415 12 37.3241C12 34.1067 12.6337 30.9208 13.865 27.9483C15.0962 24.9759 16.9009 22.275 19.1759 20V54.6481ZM53.8241 20C56.0991 22.275 57.9038 24.9759 59.135 27.9483C60.3663 30.9208 61 34.1067 61 37.3241C61 40.5415 60.3663 43.7273 59.135 46.6998C57.9038 49.6723 56.0991 52.3731 53.8241 54.6481V20ZM26.8743 46.947C24.3226 44.3946 22.8892 40.9332 22.8892 37.3241C22.8892 33.7149 24.3226 30.2535 26.8743 27.7011V46.947ZM46.1257 27.7011C48.6774 30.2535 50.1108 33.7149 50.1108 37.3241C50.1108 40.9332 48.6774 44.3946 46.1257 46.947V27.7011ZM39.2222 37.3241C39.2222 38.046 38.9354 38.7384 38.4249 39.249C37.9144 39.7595 37.222 40.0463 36.5 40.0463C35.778 40.0463 35.0856 39.7595 34.5751 39.249C34.0646 38.7384 33.7778 38.046 33.7778 37.3241C33.7778 36.6021 34.0646 35.9097 34.5751 35.3992C35.0856 34.8887 35.778 34.6019 36.5 34.6019C37.222 34.6019 37.9144 34.8887 38.4249 35.3992C38.9354 35.9097 39.2222 36.6021 39.2222 37.3241Z" fill="white" stroke="white" stroke-width="2" stroke-linecap="round" stroke-linejoin="round"/>
</g>
</g>
</svg>
