<svg width="50" height="37" viewBox="0 0 50 37" fill="none" xmlns="http://www.w3.org/2000/svg">
<g id="People">
<path id="Vector" d="M14.4069 23.106C9.26678 23.3401 6.11962 25.3563 4.22222 27.5699C2.1422 29.9966 1.5 32.7339 1.5 33.9167C1.5 34.2472 1.53402 34.496 1.58333 34.6835V33.9167C1.58333 32.7566 2.21725 30.0365 4.28765 27.625L14.4069 23.106ZM14.4069 23.106L14.3485 23.1937M14.4069 23.106L14.3485 23.1937M14.3485 23.1937C9.26468 23.4396 6.16007 25.4405 4.28871 27.6237L14.3485 23.1937ZM17.6217 24.0066C17.2822 24.417 16.9648 24.8394 16.67 25.2721M17.6217 24.0066L16.67 25.2721M17.6217 24.0066C17.8275 23.7576 18.0417 23.5128 18.264 23.2727M17.6217 24.0066L18.264 23.2727M16.67 25.2721V24.6698V24.6667V23.1186C16.9308 23.1337 17.1914 23.1536 17.4515 23.1784L17.4567 23.1788C17.7267 23.2036 17.9959 23.2348 18.264 23.2727M16.67 25.2721L18.264 23.2727M21.4464 35.4026L21.5483 35.4167H21.6512H46.1822H46.2693L46.3558 35.4066C46.3959 35.4019 46.4359 35.3962 46.4757 35.3895L46.5328 35.3798L46.589 35.3658L46.6136 35.3596L47.251 35.2003C47.2099 35.226 47.1665 35.2501 47.1208 35.2729C46.9075 35.3796 46.676 35.4404 46.4852 35.4722C46.3933 35.4875 46.32 35.4946 46.2756 35.4978C46.2564 35.4992 46.2432 35.4998 46.2369 35.5H21.5964C21.5902 35.4997 21.577 35.4992 21.5577 35.4978C21.5133 35.4946 21.44 35.4875 21.3482 35.4722C21.1573 35.4404 20.9258 35.3796 20.7125 35.2729C20.6817 35.2576 20.652 35.2416 20.6233 35.2249L21.2521 35.3673C21.3164 35.3819 21.3812 35.3936 21.4464 35.4026ZM47.8333 33.9167C47.8333 34.1779 47.8009 34.3793 47.7548 34.5351L47.75 33.8929C47.7411 32.7331 47.1079 30.0251 45.0452 27.6244C43.0461 25.2897 39.6341 23.1667 33.9167 23.1667C28.1984 23.1667 24.785 25.285 22.7874 27.6253C20.7273 30.0234 20.0878 32.7288 20.0833 33.8987L20.0809 34.5432C20.0336 34.3863 20 34.1825 20 33.9167C20 32.7339 20.6422 29.9966 22.7222 27.5699C24.7408 25.2149 28.174 23.0833 33.9167 23.0833C39.6593 23.0833 43.0925 25.2149 45.1111 27.5699C47.1911 29.9966 47.8333 32.7339 47.8333 33.9167ZM3.08333 35.5C2.75281 35.5 2.50402 35.466 2.31652 35.4167H3.08333H12.3333H13.8215L13.8333 33.9285C13.8549 31.1881 14.6056 28.5078 16.0016 26.1604L16.1056 26.1592C14.6775 28.5688 13.9192 31.2442 13.9167 33.9035C13.908 34.4402 13.9507 34.9748 14.0434 35.5H3.08333ZM33.9167 16.9167C35.95 16.9167 37.9 16.1089 39.3378 14.6712C40.7756 13.2334 41.5833 11.2833 41.5833 9.25C41.5833 7.21667 40.7756 5.26663 39.3378 3.82885C37.9 2.39107 35.95 1.58333 33.9167 1.58333C31.8833 1.58333 29.9333 2.39107 28.4955 3.82885C27.0577 5.26663 26.25 7.21667 26.25 9.25C26.25 11.2833 27.0577 13.2334 28.4955 14.6712C29.9333 16.1089 31.8833 16.9167 33.9167 16.9167ZM41.6667 9.25C41.6667 10.2677 41.4662 11.2755 41.0767 12.2158C40.6873 13.1561 40.1164 14.0104 39.3967 14.7301C38.6771 15.4497 37.8227 16.0206 36.8825 16.4101C35.9422 16.7995 34.9344 17 33.9167 17C32.8989 17 31.8911 16.7995 30.9509 16.4101C30.0106 16.0206 29.1562 15.4497 28.4366 14.7301C27.7169 14.0104 27.1461 13.1561 26.7566 12.2158C26.3671 11.2755 26.1667 10.2677 26.1667 9.25C26.1667 7.19457 26.9832 5.22333 28.4366 3.76992C29.89 2.31652 31.8612 1.5 33.9167 1.5C35.9721 1.5 37.9433 2.31652 39.3967 3.76992C40.8502 5.22333 41.6667 7.19457 41.6667 9.25ZM6.125 10.7917C6.125 8.73624 6.94152 6.765 8.39492 5.31159C9.84833 3.85818 11.8196 3.04167 13.875 3.04167C15.9304 3.04167 17.9017 3.85818 19.3551 5.31159C20.8085 6.765 21.625 8.73624 21.625 10.7917C21.625 12.8471 20.8085 14.8183 19.3551 16.2717C17.9017 17.7251 15.9304 18.5417 13.875 18.5417C11.8196 18.5417 9.84833 17.7251 8.39492 16.2717C6.94152 14.8183 6.125 12.8471 6.125 10.7917ZM13.875 3.125C11.8417 3.125 9.89163 3.93273 8.45385 5.37051C7.01607 6.80829 6.20833 8.75834 6.20833 10.7917C6.20833 12.825 7.01607 14.775 8.45385 16.2128C9.89163 17.6506 11.8417 18.4583 13.875 18.4583C15.9083 18.4583 17.8584 17.6506 19.2962 16.2128C20.7339 14.775 21.5417 12.825 21.5417 10.7917C21.5417 8.75834 20.7339 6.80829 19.2962 5.37051C17.8584 3.93274 15.9083 3.125 13.875 3.125Z" fill="white" stroke="black" stroke-width="3"/>
</g>
</svg>
